<?xml version="1.0" standalone="no"?>
<!DOCTYPE svg PUBLIC "-//W3C//DTD SVG 20010904//EN"
 "http://www.w3.org/TR/2001/REC-SVG-20010904/DTD/svg10.dtd">
<svg version="1.0" xmlns="http://www.w3.org/2000/svg"
 width="142.000000pt" height="142.000000pt" viewBox="0 0 142.000000 142.000000"
 preserveAspectRatio="xMidYMid meet">
<metadata>
Created by potrace 1.11, written by Peter Selinger 2001-2013
</metadata>
<g transform="translate(0.000000,142.000000) scale(0.100000,-0.100000)"
fill="#000000" stroke="none">
<path d="M1083 1037 c-10 -13 -39 -30 -64 -40 -104 -39 -189 -113 -265 -229
-25 -38 -46 -68 -48 -68 -1 0 -17 21 -34 48 -30 46 -106 129 -151 166 -35 27
-143 76 -169 76 -12 0 -32 11 -44 25 -27 31 -42 32 -62 3 -24 -34 -4 -62 39
-55 27 5 39 0 60 -21 31 -31 60 -83 92 -165 l23 -59 -74 69 c-91 85 -202 143
-275 143 -15 0 -31 8 -39 20 -14 23 -44 26 -62 5 -29 -34 13 -80 52 -56 21 13
25 11 68 -36 50 -55 105 -160 143 -273 37 -114 42 -140 23 -140 -12 0 -16 -11
-16 -50 l0 -50 420 0 420 0 0 50 c0 29 -5 50 -11 50 -14 0 -5 39 33 155 38
117 92 219 144 273 38 40 44 42 63 30 38 -23 79 23 51 57 -17 21 -45 19 -61
-4 -9 -12 -31 -22 -59 -25 -74 -9 -183 -70 -260 -144 -76 -73 -77 -71 -38 38
22 63 60 131 82 150 13 10 19 10 30 1 19 -16 56 2 56 27 -1 43 -42 61 -67 29z"/>
</g>
</svg>
