<svg id="Capa_1" enable-background="new 0 0 512 512" height="512" viewBox="0 0 512 512" width="512" xmlns="http://www.w3.org/2000/svg"><circle cx="33.428" cy="268.965" fill="#e7e7e7" r="25.913"/><path d="m33.428 276.842c-11.14 0-20.635-7.03-24.298-16.895-1.043 2.809-1.615 5.846-1.615 9.018 0 14.311 11.601 25.913 25.913 25.913 14.311 0 25.913-11.602 25.913-25.913 0-3.172-.572-6.209-1.615-9.018-3.663 9.865-13.159 16.895-24.298 16.895z" fill="#cecece"/><circle cx="478.573" cy="268.965" fill="#e7e7e7" r="25.913"/><path d="m478.572 276.842c-11.139 0-20.635-7.03-24.298-16.895-1.043 2.809-1.615 5.846-1.615 9.018 0 14.311 11.602 25.913 25.913 25.913s25.913-11.602 25.913-25.913c0-3.172-.572-6.209-1.615-9.018-3.662 9.865-13.158 16.895-24.298 16.895z" fill="#cecece"/><circle cx="255.806" cy="87.256" fill="#e7e7e7" r="25.913"/><path d="m255.806 95.134c-11.14 0-20.635-7.03-24.298-16.895-1.043 2.809-1.615 5.846-1.615 9.018 0 14.311 11.602 25.913 25.913 25.913s25.913-11.602 25.913-25.913c0-3.172-.572-6.209-1.615-9.018-3.663 9.864-13.158 16.895-24.298 16.895z" fill="#cecece"/><path d="m395.12 450.657h-278.24c-11.998 0-21.723-9.726-21.723-21.723 0-11.997 9.726-21.723 21.723-21.723h278.24c11.997 0 21.723 9.726 21.723 21.723 0 11.997-9.726 21.723-21.723 21.723z" fill="#e7e7e7"/><path d="m395.12 432.622h-278.24c-8.779 0-16.336-5.211-19.762-12.706-1.256 2.747-1.961 5.799-1.961 9.018 0 11.997 9.726 21.723 21.723 21.723h278.24c11.997 0 21.723-9.726 21.723-21.723 0-3.218-.705-6.27-1.961-9.018-3.426 7.495-10.983 12.706-19.762 12.706z" fill="#cecece"/><path d="m256 378.396c1.708-59.656 15.301-116.269 63.771-141.66-18.807-57.588-41.974-102.874-54.497-125.36-2.934 1.152-6.125 1.792-9.468 1.792-3.101 0-6.074-.546-8.83-1.545-12.567 22.591-35.667 67.824-54.416 125.284 48.202 25.475 61.736 81.969 63.44 141.489z" fill="#ff4755"/><path d="m251.334 271.462c-12.184-23.514-34.951-40.877-52.92-51.722-1.985 5.59-3.942 11.311-5.853 17.167 48.202 25.475 61.735 81.969 63.439 141.489 1.708-59.656 15.301-116.269 63.771-141.66-1.937-5.93-3.921-11.722-5.934-17.38-18.066 10.818-41.233 28.316-53.561 52.111-1.892 3.652-7.05 3.647-8.942-.005z" fill="#fc2b3a"/><path d="m338.885 228.953c55.839-17.02 97.997 4.861 120.737 22.347-4.317 4.629-6.962 10.837-6.962 17.665 0 .98.059 1.945.165 2.897-81.032 19.865-57.705 135.348-57.705 135.348h-139.12c-1.936-76.743 9.577-155.913 82.885-178.257z" fill="#ffe55a"/><path d="m256 407.21h139.119s-1.429-7.083-2.351-18.035h-136.952c-.037 6.007.032 12.029.184 18.035z" fill="#ffd500"/><path d="m173.115 228.953c-55.839-17.02-97.997 4.861-120.737 22.347 4.317 4.629 6.962 10.837 6.962 17.665 0 .98-.059 1.945-.165 2.897 81.032 19.865 57.705 135.348 57.705 135.348h139.12c1.936-76.743-9.577-155.913-82.885-178.257z" fill="#22a7ff"/><path d="m116.881 407.21h139.119c.151-6.006.221-12.028.184-18.035h-136.953c-.922 10.952-2.35 18.035-2.35 18.035z" fill="#0094fd"/><path d="m478.572 235.537c-7.191 0-13.852 2.29-19.311 6.168-23.254-16.405-66.471-37.037-122.567-19.941-4.371 1.332-8.519 2.865-12.478 4.562-16.823-49.466-36.458-89.243-48.776-112.04 8.352-6.083 13.794-15.93 13.794-27.03 0-18.432-14.995-33.427-33.428-33.427s-33.428 14.995-33.428 33.427c0 11.346 5.687 21.384 14.355 27.43-6.495 12.04-15.136 29.002-24.297 49.647-1.573 3.546-.106 7.839 3.317 9.671 3.805 2.036 8.673.366 10.421-3.575 9.368-21.111 18.173-38.28 24.605-50.124 3.567.54 7.205.493 10.758-.124 12.172 22.395 32.205 62.694 49.155 113.062-30.534 18.412-46.572 49.001-54.694 82.555-8.092-33.43-24.041-63.917-54.355-82.35 3.975-11.821 8.32-23.749 12.998-35.552 1.528-3.858-.359-8.225-4.218-9.755-3.853-1.527-8.225.36-9.754 4.218-4.487 11.322-8.679 22.761-12.539 34.118-4.063-1.758-8.326-3.341-12.826-4.713-56.094-17.099-99.312 3.536-122.567 19.941-5.458-3.878-12.12-6.168-19.311-6.168-18.431 0-33.426 14.996-33.426 33.428s14.995 33.427 33.428 33.427c14.083 0 26.15-8.757 31.065-21.109 25.943 9.136 41.555 31.421 46.43 66.382 3.083 22.105.84 43.238-.54 52.767-13.003 2.964-22.74 14.613-22.74 28.501 0 16.122 13.116 29.238 29.238 29.238h67.365c4.151 0 7.515-3.364 7.515-7.515 0-4.15-3.364-7.515-7.515-7.515h-67.365c-7.835 0-14.208-6.374-14.208-14.208 0-7.835 6.374-14.208 14.208-14.208h278.239c7.835 0 14.208 6.374 14.208 14.208 0 7.835-6.374 14.208-14.208 14.208h-180.816c-4.151 0-7.515 3.365-7.515 7.515s3.364 7.515 7.515 7.515h180.815c16.121 0 29.238-13.116 29.238-29.238 0-13.888-9.737-25.537-22.74-28.501-1.341-9.254-3.495-29.445-.796-50.842.519-4.117-2.398-7.877-6.516-8.396-4.113-.524-7.877 2.397-8.396 6.515-2.681 21.257-1.023 40.992.418 51.986h-122.666c.095-7.033.073-14.285-.136-21.667.931-31.706 5.088-56.849 12.756-77.759 12.329-33.62 33.523-54.596 64.796-64.128 47.21-14.392 84.068.199 108.131 16.865-2.168 3.973-3.544 8.435-3.937 13.171-24.611 7.719-42.056 24.689-51.894 50.531-1.381 3.625.315 7.833 3.832 9.478 3.907 1.828 8.68-.101 10.213-4.13 7.782-20.438 21.259-34.105 40.092-40.758 4.919 12.344 16.983 21.095 31.06 21.095 18.433 0 33.428-14.995 33.428-33.427-.002-18.433-14.997-33.429-33.43-33.429zm-241.164-148.281c0-10.144 8.253-18.398 18.398-18.398s18.398 8.253 18.398 18.398-8.253 18.398-18.398 18.398-18.398-8.253-18.398-18.398zm-203.98 200.106c-10.145 0-18.398-8.253-18.398-18.398s8.253-18.398 18.398-18.398 18.398 8.254 18.398 18.398c0 10.145-8.254 18.398-18.398 18.398zm33.303-21.174c-.392-4.74-1.768-9.206-3.938-13.182 24.064-16.666 60.923-31.255 108.131-16.865 31.272 9.532 52.467 30.508 64.795 64.128 7.668 20.911 11.825 46.053 12.756 77.759-.21 7.382-.232 14.635-.136 21.667h-122.666c1.482-11.295 3.191-31.818.187-53.731-5.748-41.939-26.147-69.383-59.129-79.776zm411.841 21.174c-10.145 0-18.398-8.253-18.398-18.398s8.253-18.398 18.398-18.398 18.398 8.254 18.398 18.398c.001 10.145-8.253 18.398-18.398 18.398z"/></svg>